<svg xmlns="http://www.w3.org/2000/svg" viewBox="0 0 1645 600" role="img" aria-labelledby="title desc">
<title id="title">HOODLUMS</title>
<desc id="desc">Graffiti-style Hoodlums wordmark in the launchpad interface green.</desc>
<path fill="#BCE759" fill-rule="evenodd" clip-rule="evenodd" d="M73,273 124,260 194,241 191,73 253,39 283,229 325,216 354,194 314,119 394,105 459,137 474,174 493,129 557,109 619,138 649,178 632,102 718,82 819,128 832,213 800,310 740,370 710,428 646,388 642,337 612,407 573,362 548,420 506,349 470,399 434,340 395,396 361,335 358,464 339,538 319,440 300,369 284,488 263,424 245,334 207,352 211,421 197,455 181,398 166,337 133,389 99,351 77,454 57,382 39,318Z M376,195 352,209 347,254 361,286 389,302 417,288 432,254 424,215 403,194Z M531,180 506,195 500,242 519,280 549,290 576,269 584,225 566,188Z M687,168 704,317 757,261 771,204 753,168Z M854,62 899,51 906,273 981,247 976,44 1024,30 1055,280 1080,139 1104,57 1140,79 1184,267 1210,112 1240,48 1289,61 1348,273 1363,95 1410,78 1479,120 1531,205 1603,243 1605,347 1538,368 1475,339 1437,311 1426,365 1382,373 1364,314 1348,379 1304,356 1274,286 1260,367 1217,343 1186,269 1177,362 1138,321 1114,250 1099,361 1068,322 1037,250 1015,359 987,325 985,310 911,334 905,468 880,445 868,348 854,384Z M1443,188 1492,209 1531,251 1558,276 1555,309 1517,304 1470,280 1437,252Z M1488,57 1518,0 1531,59 1583,17 1571,78 1627,50 1592,104Z"/>
</svg>