<svg xmlns="http://www.w3.org/2000/svg" viewBox="0 0 800 296" role="img" aria-labelledby="title desc" preserveAspectRatio="xMidYMid meet"><title id="title">HOODLUMS</title><desc id="desc">Approved graffiti-style Hoodlums wordmark in the launchpad interface green.</desc><path fill="#BCE759" fill-rule="evenodd" clip-rule="evenodd" d="M176 230l-2 1v3l3 -2zM136 226l-1 1l2 1zM667 222l-2 1l1 4l1 -2l-2 -1zM114 220l1 2l1 -1zM118 213l1 1l2 -2zM128 206l1 2l2 -2l2 1l-2 -2zM757 203l-3 2h2zM549 198l-3 1l1 1zM119 198l-3 5l2 -1zM112 195l2 2v-2zM68 195l-1 1l2 1zM713 194l-2 2l1 5l3 1l-2 -2zM553 193l5 3l-3 -3zM647 191l-2 2h2zM656 190l-2 1l-1 4l2 -1zM702 188l-3 3l3 -1zM27 187l-4 3l1 1zM68 183l-1 2l5 5l-2 2h3v-2l-2 -1l1 -1zM655 180h-2l-1 2h2zM57 180l3 2v-2zM787 179l-2 2l1 4l2 -4zM445 178l-2 4h2zM215 174l-1 1l3 3l-5 4l5 -4zM789 173l-1 -1l-3 4zM612 170v9l-4 2l2 2l2 -3zM645 168h-2l1 2zM463 167v3l2 1zM110 164l-3 2l2 1zM19 160l-1 2l2 1zM102 157v2l2 1zM119 155l-3 1l2 1zM607 153v3h2v-2zM115 150l4 1l-1 -2zM638 146h-4v2zM642 144l1 2l-2 3h2l1 -3zM17 132l-1 5l2 -4zM519 131l-3 4l-3 1l2 5l1 -1l-2 -3l5 -4zM476 127l-3 2l-3 -1l2 3zM445 126l-1 1l2 1zM439 125l-1 3h2zM29 123h-2v2zM17 119l-2 3h3l1 2v-3zM744 118l-3 3h4zM93 113l5 2l-2 -2zM442 106l-3 2l2 3l1 -1l-2 -1zM94 103l2 2l4 -1l-1 -1l-3 2zM505 100l-1 2h2zM82 101l-2 -1l-1 2zM42 97l-2 2h2zM97 91l2 2l-1 2l-1 -1l1 1l1 -2zM149 90l-2 -1l-2 2zM18 89l1 2l2 -1zM31 86l4 2l-1 -2zM517 84l1 2l1 -1zM505 84v2l3 2h2l1 -2l2 1zM605 81l-2 4l2 -1zM98 78h-3l-3 4zM77 77l-1 1l2 1zM147 76v2l4 -1zM23 73l-2 1v2zM606 72l-1 -1l-1 2h-4l5 1zM452 71l3 3v-2zM226 71l2 3l1 -2zM231 67v2l2 1l-2 4l2 2l-3 2h2l2 3v-2l-2 -1l2 -1v-3l-2 -1l2 -5zM137 63l-3 4l2 2l-3 4l1 2h2l-1 -4l2 -1zM93 63v6l4 3l-1 4l2 -3l-2 -2l2 -3l-3 1l-2 -2zM439 62l1 2h2zM237 62l2 2l-2 2l4 -2l-1 -2zM602 59l-5 2l3 1zM22 59l4 7l1 -3l-3 -1zM30 58l2 1l2 -2zM609 55l1 2l-4 2v3l1 -3l4 -1zM517 55l2 3v-2zM678 54l3 2v3v-4zM603 54l-2 1l1 1zM140 54l-2 2l1 2zM627 54l-5 -1l1 6l-2 1l-2 -3v2l2 1l-3 3l-4 -2v11l4 -7l2 2l-2 -4l5 -2l2 2v-9l4 4zM615 64l1 -1l2 2l-2 1zM618 54l-2 -1l-2 3zM184 53l-1 2h2zM67 52l2 1l-1 2h2v-3zM28 50l-1 -1l-1 2zM517 48l-1 4h2zM408 46l-1 4l-2 -1l-3 2l2 4v-5l1 -1l2 2zM626 44l-1 2l4 3l-3 -3zM437 44h-2v2zM81 44l2 3l2 -1zM561 42l-1 -1l-1 2zM330 40v2h2v-2zM55 38l-2 1l1 1zM634 37l-1 -1l-1 2zM93 36l-1 2l2 1zM90 33l1 2l1 -1zM327 30l-1 -1l-1 2zM13 179l1 2l1 -1l5 2v-3l4 -3l3 2v2l2 -2l1 3l-2 2l2 1v11l1 -7l2 -2l1 1l1 14l2 1v33h2l1 -35h3v-14l3 -3l1 1l1 13l1 -16h2l1 5v-4l4 -7l2 3l3 -1l-2 -2l2 -1v-5h3l-3 -2l4 -1l2 3l-1 -3l2 -2l1 4l3 1l-4 3l-1 -1l4 3l-5 3l8 -2v5l-3 3l8 4v5h-4l4 4l-2 6l5 4l-3 4l3 1l-2 1l1 7l-2 4h3v2h-2v2l2 1l-2 4l3 1v12l1 -29l5 -1l1 5l2 -3l1 1v6v-4h2l-1 7l2 24l1 -26h3v25l2 10v-18l2 -1v-2l-2 -1v-4l3 -1v-3h-3v-4l1 -1l1 2l2 -3v-11l5 -2l1 4l2 -9l-2 -4l-4 -3l2 -3h-3l-5 -12v-3l2 -2l-4 -2l-3 -7l3 -7l-3 4l-2 -4l5 -4l-2 -1v-6l6 -2l2 1l-3 -3l2 -2v-4l4 -3l1 4l1 -5h6l1 2l-3 1l-1 6h2l-1 -3l2 -2l1 5l6 3l-1 2l-1 -1l1 2h2l-2 3l2 -1l1 2l-2 1l-1 5h4l-1 3l4 2l1 4l-1 3l-3 -3l2 4l-3 3l3 -3h3v9l-3 3l3 -1v-3l2 -1l2 3l-2 2l1 2l-3 3h6l-1 3l-3 2l2 2l4 -2l1 1l-1 3l2 1l-3 5l2 -2l2 2v4l-3 2l2 -1l2 4l1 -2l1 1v5l2 1l-2 2l4 4v18h2l-1 -8l2 -2l3 4l1 -5l1 6l-2 1l2 1l-1 2l2 2v-3h2l1 12l1 -6h2v35l2 -1l1 -36l4 -1l-3 -9l2 -2l2 2l-1 2h2l2 -4l-4 -1l-2 -8h3l-2 -2l2 -3h-3l-1 -3l3 -1l-4 -3v-4h-2l1 -11l-4 -3l4 -3h-7l-1 -10l2 -3l-2 -1l1 1l-2 1l-2 -3l1 -3l-2 -1l2 -2h4l3 -2l-7 1l-1 2l-3 -3l1 -3l5 -1l1 -2l1 3l3 1l-2 -2l2 -5l3 2l-2 3l4 4v-2l2 -1l2 7l1 -2l2 2v36l-5 1v2l5 -1v4h2l1 -46l2 8h2l-3 4h3v14l2 9v-17h2l-2 -4v-7l4 -1l1 3l3 1l1 17l1 -19l1 -1l5 4v5l3 4v23l2 10v-47h2v4l2 1l-1 -7l2 -5h2l1 -2l4 4l-2 -4l4 -3l-1 -3l7 -6l2 1l-2 -1l1 -2h3l4 3l2 -4l3 4l-3 1v4l3 3h2v-2l-2 1l-1 -3h6v4l3 3l-2 4l2 -1v-2l3 1l1 8l2 1l-1 7l2 -3l1 1v27l2 21l1 -52h2l-1 22l1 -9l2 10v-23l2 -1l1 -4l2 3l-1 5l2 15v-12l2 -8l-1 -5l1 -1l2 2v44l2 2v-38h5l-2 -3l2 -2l-2 -1l2 -1l1 -5h2l-1 28l2 5l1 -29l1 -1l2 4v-4l3 -2l1 -4l3 2l-1 -1l3 -1l1 -3l3 3v-5l2 -2l3 1v-4l-2 -1l4 -1l2 -8h2l1 7l1 -9l1 -1l2 4l3 -3h-4l-1 -2l6 -2v9l1 -1l1 2l-2 1l-2 5l1 2l2 -2l2 1l-3 5h4v5l-3 1l2 4l-3 3l2 1l-8 4v2l7 -3l2 1l-4 4l1 3l-4 5l8 -2l1 1l-3 2v3l2 -1v3l4 -1l1 3h2l1 -5l2 14l2 -10l1 3l-2 -8l1 -1l3 2v36l2 12l1 -45h2v20l2 3v-29h2l2 9v-14l1 -1l2 2l2 -2l-1 -3h2l-1 -1l2 -2l2 7l-1 -3l2 -1v-3l3 -3l1 6l6 -12l4 4l5 -8l-2 -2l4 -3l2 2l1 5l1 -4l1 3l-1 -6l2 -2l1 1v13l2 1v-18h2v5l1 -7h2v-6h2v3l2 -1v-5h4v-3l3 -2l3 -6l2 5l2 1l-1 9l3 5l-3 3l2 2v3h-4l1 2l-4 3l2 3l-3 5l3 2h6l-4 3l-1 3l5 1l-2 4l3 -2l2 6l1 -4h3l1 21l1 -22h2l1 67l1 -10h2v-3h-2v-15l1 -1l1 2v-11l-1 5l-1 -6l3 -3l1 20l2 -3v-46h2l1 13l1 -13l3 -3l-1 -1l3 -7l3 1l6 -3l2 3l-3 2l-2 -2l3 3l4 -3l-2 -4l8 -6l3 -1l3 5l1 -2l4 -1l-5 -2l2 -2l5 -2l3 2l3 -3l1 4l-2 3l2 1l1 -6l4 -2l2 3l1 -3l2 6h4l1 6l2 1l1 -2l2 2v5h4v9l1 -7l2 -1l2 2l-2 2l2 1v3l3 2v32h2v-33l2 -1v4l3 2l-1 -6h3v24l2 2v-24h2v3l3 -1l1 -10l2 6l2 -6l3 2l-1 4h2l-1 -16l3 -1l2 2l1 -2l-2 -2l3 -1l-1 -2l2 -1l1 3h4l1 4h-2h2l3 4l-3 1l2 1l-2 2l3 2l-1 -3l2 -1l3 5l-1 3l-1 -2h-2l5 6l-1 4h3v2h-2l1 3l4 1l-3 1l3 3l-2 2l2 -2h3l2 4l-3 3h3l1 -2l1 1v14l3 2l1 40l2 -28l-1 -20l2 -6h4l-3 -1v-10l1 -1l5 6l1 5l3 -9l2 3v-3l-3 -1v2h-2v-8l3 -1l4 4v-3l-5 -5l3 -2l2 2v3l1 -1l2 2l-1 6h2v-6l1 -1l3 3l-2 -6l2 -1v-7l2 -2l3 1l-2 -2l-2 2l-2 -1l-2 -9l2 -10h-2l-1 2l-2 -9l4 -3h-5l1 -5l-2 -1l-2 -5l2 -5l-2 -1l-1 -5l5 -3l2 1v3l1 -1l2 3l-3 1v2h2l1 -3l2 3l-1 5l4 1v4l-1 1l-1 -2l1 5v-3h2v5l1 -7h2l1 -3l2 2v5h-3v2l1 -1l3 4v32l3 -38l1 11l1 -6h2l1 20l1 -15l1 -1l4 4v28l1 -34l1 -1l4 3l-3 2l5 -2l-6 -4l-1 -3l4 -7l4 1l5 -3l-3 -6l2 5h-4l2 2l-3 1l-2 -4l3 -3l-3 -3l3 -1l-2 -3v-4l3 -1l-2 -1l3 -3l5 2l-1 3l2 1v3l-2 1l-1 4l3 3l-1 2l4 1l-1 3l-1 -2l-1 1v3l5 6l-3 5h4l-1 3l2 2l-2 8l3 3v2h2v5l-1 1l-2 -4l-2 1l4 4l2 -2l3 3l-1 1l3 2l-4 3l5 3l-1 5h-2l-1 2l2 -1l2 2l1 6h3l2 3l-3 2l-1 -2l-1 1l5 5l-2 3v5l3 2v35v-8l2 -3v-35h3v-3l2 -1l2 6v-7l2 -2l4 5l-1 2h3l-1 -9l-2 -1l1 -3h2v-6l-3 -2l2 -1l1 -4l-4 5l-1 -3l2 -3l-2 3l-1 -1l2 -8l1 3h2l1 -4l2 2v19l2 -1l1 -14l-2 -2l2 -1l2 2v10l2 -9l3 2l-2 4h2l-1 -1l4 -2l5 4l8 3l1 7l2 -1l1 -4l2 1v2h3l1 1l-3 3l-1 4l2 -5h2v-4l2 1l1 8l1 -7h3l-1 22l3 -6l2 41l1 -45l1 -1l2 3l-1 14h3v-21l3 -4l2 4l3 1l-2 -1l2 -4l3 2l5 -3l1 -3l3 2l-2 3l1 1l1 -4h3l1 -2l2 10v-9h2l3 6l1 -3l-3 -2v-3l4 -2l1 4l3 2l-2 -3v-4l2 -2l-1 -2l2 -2l3 2v3l2 -2l-2 -1l2 -4l-4 -3l2 -1l-2 -3h2l1 -4l-3 -4l1 -5h-2l-2 -3l1 -9l-4 -1v-2l-2 -1v-4l-3 -2l1 -2l-4 -3l3 4l-2 3l-4 -5l1 -2l-2 2l-2 -2l-1 -9v6l-2 2l-1 -2h-3l-1 -3l-3 -1v-2l-6 -3l2 -1l-1 -2l-3 2l-3 -2l1 -2l-3 -2l2 -1l-1 -3l2 -10l1 8l1 -1v-18l5 -1v-4l2 2l1 6v-12l-4 -3l2 -2v-3l2 -4l14 -14l1 -6l-12 4h-3l-1 -3v4h-8l8 -18v-6l-6 2l-12 8h-3v2h-2l1 1l-4 3l-1 -8l2 -12l-2 -4l-4 3l-12 21v8l3 1l-1 2l-13 -1v3l-5 -1l-1 2l-9 -2l-2 1l1 2l-2 2l-3 -2l-2 2v-4h-3l-2 3l-6 -5l1 -3l2 1l-1 1l2 -1l-2 -3l3 -7l-4 -2l2 -3h-2l-3 3l-3 -2l-1 -8l-2 -1l3 -3l-6 4v4l-5 -2l1 -4l-2 -1v11l-2 -1v-2h-3l1 -2h2l-2 -2l2 -2l-5 1l2 3l-2 1v3l-8 -4l-1 2h4l2 2l-1 2l2 1v2l-2 2l1 3l-2 5l-3 3l-1 -1l2 4l-2 2l-1 -1v5h-4l3 3l-2 1l1 1l-5 1l1 4l-6 6l3 -2l4 2l-6 2l-1 4h-8l-2 2l-1 -4l2 -4l-6 2l-3 -3l3 -4l-4 -3h5v-2h-4l-3 3l-3 -4l5 -7v-3l-2 5l-4 -3l1 -1l-1 1l-2 -2l3 -6l3 1l-4 -2v-5l-3 1l-1 -2h-2l1 4l5 4l-2 1v5l-3 3l-2 -3l-1 1l-3 -2l2 -2l4 2l-6 -6l2 -2h-3l-1 2l-2 -2l-1 1l2 1l-3 1l-2 -2l1 -3l-2 -2l-1 3l-4 -2l3 -4l-3 -2l3 -2v-2h-3l-1 -3l1 1l-4 2v2l4 -1l1 2l-6 1l-1 2l-4 -1l4 3l-3 4l-2 -3l-2 2l3 2l-2 3l-2 -2v2l2 1l-3 2l-2 -2v-6l3 -4l2 -7h-2v6l-2 1l1 2l-4 1l-3 -3l3 -3l-5 -2v-4l1 -1l4 2v-2l-4 -2l-1 3l-2 -6l-4 -1v2h3l-1 6l-2 -4l-2 1l-1 -3l-4 -2l-1 1l3 2v3l-1 1l-2 -3l-1 3h-3l2 7l-4 3l3 2l-2 2l2 1l-1 1h2l2 7h-2l3 4h-9l2 1v2l6 -1l2 3l-2 2l-3 -1l3 2l1 3l-3 1l2 2l-1 2l4 4l-2 1l2 2l-2 4l-3 1l2 1l3 -3l4 3l-2 2v3l3 2l-1 6l2 1l1 9l-3 1v7l-1 1l-4 -2v4l-3 1v2l4 2l-1 -6l3 -2l4 2v2h-2l1 4l-1 1l-2 -2v8l-1 1l-3 -2l1 -1l-1 1l-1 -2h-2v6l-1 1l-2 -2l-1 3l-1 -5l2 -2l-3 1v2l-2 1v-2l-2 -2l-1 1l-3 -5v-15h-2l-1 3l-2 -4l4 -2h-2v-2l-2 2l-2 -6v-8l-2 -4l1 -11l-2 -2l-1 -12v-51l-2 -1v6h-3l1 1l-2 1l-2 -3v-4l-3 -4v2l-2 1v9h-2v-6l-2 5l-5 1l1 7h-3l-2 4l-4 -1l2 2l-1 1l4 1v21h2l1 9l-2 1v2l2 2l-1 6l1 -2l2 5l-4 5l2 3v-3h2v9l-2 1l1 7l2 1l-2 -1l1 -8l3 8v3h-3l2 3l-2 2l2 3l-3 1l1 5l-2 2l-1 -2h-2l1 1h-3l1 1l-2 2l-1 -4l-2 2l-1 -2h-6l4 3l2 -2l1 3l-6 3l-4 -1l-1 3l-2 -2h-2l-1 2l-3 -3v6l-2 1l-2 -4v5l-3 1l-2 -2l-2 1l2 2l-3 2v-8l-2 -1v-6l1 -1l2 3l-1 3l4 -3l-3 -1v-4l-3 -2l2 -10l-2 -1l-1 -13l1 -1l2 2l-1 -4l2 -2l1 -6l-1 -1l1 4l-2 1l-3 -3l1 -9l8 -4l2 2v-3h-4l-3 2l-4 -2l2 -8l3 -4h-3v-13l2 -4l-2 1l-2 -2l2 -3h3v-2l-5 2l-3 -5l1 -4l-2 -1v-3l-3 1l-1 -3h-2l-1 -3l-6 -2l-1 3l1 -1l1 3l-4 1l-1 9l-2 -5l1 -1l-2 1v14l-2 1v5l-1 1l-1 -3v3l-2 1l5 1v4h-2v2l2 1v4h-3v3l2 -2l2 4l-3 2l3 4l-1 6l-2 -1l1 -4l-3 -1l-2 -6h-2l-1 -5l1 -6l3 -3l-3 -2l2 2l-2 4l-4 3l1 1h-5l-3 -3l2 -2l-2 2l-4 -4l4 -3v-2l-2 2l-2 -1l1 -3l-3 -5v11l-11 -6l3 -3h-2l-3 -3v-2h-4l-1 -3l-4 4h-8l-2 -2l3 -2v-3h-5l-1 2l-1 -1l-1 2l-2 -1l-2 2l-3 -2l3 -2l-5 3l-6 -1l-1 -2l-5 1l-1 -2l2 -1v-2l-4 2v3h-4l-2 -2l-6 3l-1 -2l-1 2l-2 -6l-1 2l-1 -1l-1 4l-1 -2h-2l1 2h3v2h-6v2h7v2h-8l-3 -2l-2 2v5l2 1l-1 1l2 -1l7 4l-3 3h-3v2l3 1l-2 2l-1 5l-4 -3l-1 -3h-3v-4l-4 1l-1 -3l-8 -1v-6l-2 -1l-2 1h3v5h-2v-3l-3 5l-10 -2l-1 2l-2 -3v-4l-1 2l-1 -1v6l-2 -1l1 -1h-2l-1 2l-3 -1l2 2l-5 1l-1 3l-7 2l-1 -1l3 3l-2 1v4l2 2l-3 2l1 1l-2 3l-1 -1v2h-2l-2 -4v6l2 1l-3 4l-2 -1v-4l-2 3l-2 -2v-6l-3 -2l-1 -6v3h-3v-4l-2 -3l2 -1l3 3l3 -1l-7 -3l-3 2v-3l-2 -1l1 -2l-2 -2l-1 1l2 2l-3 3l-2 -2l1 -4l-4 3l-4 -4l-8 -1v-3l-20 1l-1 -2l-2 3l-4 -2l1 1l-4 1l-1 4l-5 1l2 2l-9 3v2h6l1 7l3 -2l1 2l-5 7l-1 -3l-2 1l2 4l-2 7l-5 4l-2 -2l-2 2l1 2l-5 2l-1 -5l1 -1l2 3l-1 -3l-3 -2l2 -6l-1 1l-3 -3l-3 -15l2 -2v-5l2 -2l-2 -2l2 -2l-1 -4l3 -4l-2 -1l-1 1l2 1l-2 2l-4 -2v-3l6 -5l-2 -3l-1 1l-2 -2l2 -5l-3 -3l5 -4l-5 -1l-15 3l-4 -6l1 4l-3 4h-3l-1 -5h-2l1 5l-3 1v7l-3 -4l1 -1l-2 -6l1 5l-2 1v3l2 4l-3 2l3 1l-4 3l-1 3l3 -2l2 2v3l-3 2v2l3 -3v6l5 2l-1 2l-3 -1l-1 2l2 1l1 -3l3 3l-1 11l1 -1l3 3l-1 2h2l-1 3l2 1l4 14l-1 4l-5 -4l1 3l3 2l-4 2l1 1l1 -2l3 6l-5 4l-2 -2l2 -2h-6l-2 -4l-6 1l-2 2l1 1l5 -2l1 2h4l3 3l-3 2l-1 -1l1 1l-2 3l-8 -1l2 3l-9 5l-2 -2l3 -1v-3l-3 -1l3 -2l-2 -2l2 -2l-2 2l-5 -2l1 -3l-1 1v-3l-2 -1l2 -2l-4 -3l-1 -4l3 -9l-2 3l-4 -2l1 -4h-2v-5l-2 -1l1 -2l-1 1l-2 -3v-5l2 -1l-4 -2l2 -3l-6 -4l3 -2l1 1l3 -4l-3 2l-3 -5l2 -1l-1 -2l-3 2v2l-3 -1l1 -9h-2l-1 5l-3 -2l1 -3l-7 3l-3 -3l2 -1l-1 -1l-2 1l-4 -2l2 3l4 1l-2 2l-2 -1l2 6l-5 2l3 2l-1 2l2 1v3l-2 2l-4 -2v7h-4l4 2l4 -2l2 2v3l-1 1l-2 -4l-4 6l-3 -2l2 -1h-3v5l3 -2l7 6v2h4l1 2l-3 2l-1 -1l1 2l-2 2l-6 -1l2 3l-2 1v4h2l7 -9l4 1l1 4h-2l4 4l-3 4l1 -1l2 3l-2 2v5l3 -1l2 3l-2 2l3 -1l2 2v3l-4 -2l2 5l-1 1l2 1v-2l2 -1v3h2v4l2 2l-4 1v2l-6 6h-5l1 4l-5 4l-2 -2l2 -1l1 -6l-2 2l-2 -1l2 1l-1 5l-5 4l-1 -1v6l-7 4l1 5l-2 1l-2 -3v2l2 1l-7 3l3 6l4 1l-2 2l-4 -1zM169 235l1 -1l1 2l-1 1zM84 212l3 -1l1 3l-1 1zM144 211l1 -1l1 2l-1 1zM104 210l2 -1l1 2l-1 1zM164 204l1 -1l1 2l-1 1zM675 202l1 3l-2 2l-1 -3zM737 201l1 -1l1 2l-1 1zM747 200l1 -1l1 2l-1 1zM429 199l2 3l-2 8zM137 198l1 -2l2 1l-2 2zM580 195l1 -1l1 2l-1 1zM342 195l1 -1l1 2l-1 1zM774 193l1 -1l1 2l-1 1zM158 185l1 -1l1 2l-1 1zM778 184l2 -1l2 3l-1 1zM575 181l1 -1l1 2l-1 1zM76 179l1 2l-2 4l-2 -4zM199 178l1 -1l1 2l-1 1zM276 177l1 -1l1 2l-1 1zM577 175l1 -1l1 2l-1 1zM533 175l1 -1l1 2l-1 1zM190 175l2 -1l1 3l-1 1zM188 175l1 -1l1 2l-1 1zM681 173v5l-2 -3zM576 173l1 -1l1 2l-1 1zM372 173l1 -1l1 2l-1 1zM408 171l2 -1l1 2l-1 1zM751 171l2 -2l2 1l-1 2zM675 170l2 -2l1 1l-1 2zM453 169l1 -1l1 2l-1 1zM19 170l3 -3l1 2h3l-4 4zM574 166l2 3l-2 2zM292 166l1 -1l1 2l-1 1zM574 165l1 -1l1 2l-1 1zM572 165l1 -1l1 2l-1 1zM247 165l1 -1l1 2l-1 1zM214 165l1 -1l1 2l-1 1zM26 165l3 -1l1 4l-2 1v-3l-1 1zM548 163l1 -1l1 2l-1 1zM546 162l1 -1l1 2l-1 1zM382 162l1 -1l1 2l-1 1zM155 160l2 -1l5 3v3l-1 1l-2 -2l-3 3zM675 160l2 -2l1 1l-1 2zM696 159l2 -2l4 1l-3 2zM545 160l2 -3l2 2l-3 2zM570 157l1 -1l1 2l-1 1zM345 159l1 -4l5 1l-2 2l-1 -1l-1 3zM573 155l1 -1l1 2l-1 1zM222 156l1 -2l2 1l-2 2zM320 154l1 -1l2 2l-2 1zM152 153l3 3l-2 3l-4 -2zM771 153l1 -2l2 1l-2 2zM690 151l1 1l-2 5l-1 -5zM229 152l1 -1l1 2l-1 1zM148 152l2 -1l2 2l-3 1zM225 153l2 -3l2 2l-2 2zM152 150l1 -1l1 2l-1 1zM525 149l-1 2l-4 -1l4 -2zM90 151l1 -3l3 1l-3 3zM95 147l5 3l-3 2l-1 7l-2 -4l-1 1l-2 -3h4l-2 -3l2 -1zM733 148l2 -2l2 2zM146 145l2 -1l2 4l-2 1zM101 145l2 -1l1 2l-1 1zM513 144l1 -1l2 2l-2 1zM120 144l1 -1l2 2l-2 1zM117 141l1 -1l1 2l-1 1zM531 139l1 -1l1 2l-1 1zM410 138l2 -1l1 3l-1 1zM57 134l1 4l-8 4l-1 -2l4 -2l2 -4zM409 134l1 -1l1 2l-1 1zM171 134l1 -1l1 2l-1 1zM56 133l2 -1l1 2l-1 1zM566 130l4 1l-2 2l3 2v9l2 1v2l-2 1l3 1v3l-4 2l-2 -2v-6l-2 -1l3 -2l1 -3l-3 3v-4l-3 -2l1 -3l3 3v-2l-3 -3zM407 130l1 6l-2 4l-2 -2v-4zM172 128l2 4l-3 2l-1 -3zM484 127l2 5l-7 2l-1 -1l3 -2v-4zM315 126l2 1v5l1 -1l2 4l-1 6l-4 -3l2 -2l-2 -2zM143 126l3 2l3 10l-3 5l-2 -3l2 -3l-3 -2v-3h2v2l-1 -5h-2zM692 126l1 -2l2 1l-2 2zM315 125l2 -1l1 2l-1 1zM143 124l1 -1l2 2l-2 1zM589 124l2 -2l3 1l-3 2zM247 122l1 -1l1 2l-1 1zM482 119l1 4l-2 1l-1 -1zM315 121l2 -2l1 1l-1 2zM590 120l1 -2l2 1l-2 2zM80 121l1 -3l2 2l-2 2zM411 117v15l-4 -2v-2l3 -1l-1 -6zM81 118l1 -2l2 1l-2 2zM316 115l1 -1l1 2l-1 1zM665 114h3v7l3 3l1 -1l-3 -4l2 -3v-2l-1 1l-1 -2l2 -2l3 3l-1 1l3 -2l4 3l-2 2l1 2l2 -3l4 2l1 3l3 1l-2 1l2 4v-5l2 -1l2 2l-2 1l1 2l4 -2v2l2 2l2 -1l2 4l1 -3l3 5l2 -2l4 4l2 -2l2 5l2 -2l2 1v2l4 -1l2 2v3h2l1 2l3 -2v4l3 3l2 -3l1 3l5 1v3l2 -2l3 2l-4 3v2h8l1 1l-2 2l2 -2l2 1l-4 4l-1 6l-9 2v-3l-3 -3h-2l-2 3l1 -2h3l2 2l-1 2l-13 -1l-4 -4l-2 2l-3 -1v-9v7l-2 1l-1 -9l-2 -1v9l-3 -2l1 -3l-4 2l-5 -3l1 -2h2l1 2l-2 -3v-5l-8 1l-2 -5l-7 1l-3 -2v-2h-3v2h2v4l-3 2l3 2v3l-2 1l-5 -4l-3 -5l1 -6l3 1l-1 3h2l1 -3l-3 -2h-2l-1 2l-3 -10l1 -2l1 1v-4l4 -3l-1 -2l-4 4l-3 -2zM748 171l-1 -2l-4 2zM732 166h-2l1 1l-4 3l3 -1zM742 162l2 4l4 -1v-2h-2l1 1l-2 1l-1 -3zM685 144l3 1l-1 -2zM723 141l-3 4l3 -2zM716 141l-1 1l2 1zM691 137l3 4v-2zM703 135l-1 1l2 1zM679 133l-1 2l2 9l1 -1l-2 -2zM111 113l2 -2l2 1l-1 2zM314 110l1 -1l1 2l-1 1zM585 108l1 -1l1 2l-1 1zM614 104l1 3l-2 1l-1 -1zM75 104l1 -1l1 2l-1 1zM557 102h4l2 2l-1 3l3 1l-4 2h3v2l2 1l-1 5l3 3l-4 2l5 3l-1 3l-1 -2l-1 2l-4 -1l3 -2h-3l-2 -3l2 -1l-1 -1l2 -1v-2l-2 2l-2 -1l-1 -5h2v-2l-3 -1v-2h2v-2l-1 1l-2 -4zM561 102l2 -1l1 2l-1 1zM315 101l1 4l-2 1l-1 -1zM312 102l1 -2l2 1l-2 2zM436 100l1 -1l1 2l-1 1zM604 97l2 -1l1 2l-1 1zM409 97l1 -1l1 2l-1 1zM33 97l1 -2l2 1l-2 2zM729 94h5v2l2 1v21l-2 -5h-2l1 3l-3 2l-6 -2l2 -2l-1 -4l2 -2l1 1zM734 98l-3 4l3 -1zM228 94l1 3l-2 1l-1 -1zM615 92l2 3v5l-2 3l-1 -2l-4 -1l2 -1zM228 93l1 -1l1 2l-1 1zM408 92l1 -1l1 2l-1 1zM71 92l2 -1l1 3l-1 1zM616 91l2 -1l1 2l-1 1zM308 92l2 -3l3 2l-3 2zM692 86l2 3l-1 2l-3 -3zM695 87l3 -1l1 3l2 -4l2 1v3l2 -4h5l2 3l2 -2l5 1l1 3h3l3 3v12l2 2l-4 1l-1 -2l-2 2l2 3l-3 3l-5 -3l1 -2l-3 1l-3 -3h-2l-1 -4l-2 2l-8 -4v-2l-1 1l-4 -6l2 -3l3 1l-2 -2zM707 91l-3 1l1 1l-4 3l1 1zM662 85l1 1l-2 3l-1 -3zM273 85h4l-2 3zM185 84l2 2l-1 1l3 1l-2 2l2 -2l1 1v3l2 -8l2 1l-1 2h2l2 3l3 -1l2 2v3l3 1l-1 7l2 -3l1 3l3 1l-1 2h-3l-1 3l3 1v-3h3l2 7l-1 5l2 3v3l-3 2v4l-2 2l-1 -3l-1 1l3 3l-2 4h-2l1 2l-3 3l-1 -1l1 2l-2 1l-2 -3l-1 3l-7 5h-2l-2 -3l2 -4v2h-2l1 3l-3 2l-3 -2l1 -2l-2 2l-4 -3l2 -1v-3h-3l-1 2l-2 -3l3 -8l-4 -1l1 -1l-3 -2v-3l3 -1l2 2v4l1 -4l-1 -2h-4l-3 -2v-8l3 -8h2l-1 -3l2 -4l2 6v-5l-2 -1l1 -2h2l-1 -4h3l1 -4l2 5l1 -2l-3 -3zM193 141l6 -3h-4zM199 129v2l2 -1l3 5v-3zM206 119h-2v3l2 -1zM209 112l-3 4l-2 -1l1 -2l-1 3l4 1l-1 -2zM198 96l2 3h2zM529 83l1 3l-2 1l-1 -2zM557 83l1 -1l1 2l-1 1zM306 83l1 -1l1 2l-1 1zM268 82l6 2l-2 1l-1 5h5l1 -2l4 -1l1 1l-2 4l5 -2l4 5l-3 6l4 -4l2 2l2 5l-3 3l2 1l-1 4l2 -2l2 4v5l-5 1l4 3l-2 1l1 3l-1 3h-2l1 2h-2l1 2l-2 2l-4 -1l2 2l-3 1l-5 7l-1 -3l-2 3l-4 -2l-1 4h-6v-6h-2v2h-2l1 1l-2 1l-4 -3l2 -3l-2 2l-3 -2l1 -3l3 1v-3l2 -2l-2 -1v2l-5 2l-2 -2l1 -3l-2 -1v-3l3 -3l-2 1l-1 -5h-2v-4l3 -1v-4l-2 -1l4 -5h2l-3 -2l3 -1l-2 -2l1 -2l4 -1l-1 -2l3 -1l1 -4l4 6l2 -4l-6 -2l8 -4zM270 137l3 1l-2 -2zM288 130l-3 2l1 1zM264 129l-3 2l1 1zM257 125l-2 4l3 -3zM264 123l-3 1l1 3v-3zM259 119l-2 2h2zM252 115l6 2l-2 -2zM290 114v2h3zM270 113l2 3l3 -1h-3zM661 83l1 -2l2 1l-2 2zM619 83l2 -2l1 1l-1 2zM37 82l2 -2l3 2zM744 80l1 -1l1 2l-1 1zM338 79l1 -1l1 2l-1 1zM743 79l1 -2l2 1l-2 2zM664 78l1 -1l1 2l-1 1zM349 76l1 4h2l3 4l-1 3l2 -3l-4 -5l1 -2l4 3h5l2 3l1 -2l5 3v2l2 -1l1 1l-3 2v2l3 -4l3 3v5l4 -4v3l2 1l-2 4l1 1l1 -2h2l2 5l-4 7l5 -5l1 8l-2 4l-2 -5l2 6l-5 3l1 3l-4 3l1 2l-3 2l-1 3l-2 -2l2 2l-4 5l-1 -4h-2l-1 3l2 1l-3 3h-2l-2 3l-5 -1l3 4l-2 2l1 1l-2 2l-2 -3h-2l-1 3l-2 -2l1 2l-3 2l-2 -4l-1 2l-1 -1v-5h4l-5 -2v-3l2 -1l-3 -3l-1 -12l2 -1l1 -4h-2l-1 2l-1 -1l-1 -7l2 -2l-1 -3h-2l-1 -19h4l-5 -1v-7l2 -1l4 3l-2 2h3v-3h-2v-2l2 -1l-4 -2h9zM352 125l-1 1l2 2zM363 123l5 1l-3 -2zM372 117l4 5l-3 4l1 1l5 -5l-3 -1l-2 -4zM382 115l-2 1l1 1zM378 107l1 2l1 -1zM376 101l-1 1l2 1zM341 98h-2l1 5zM354 91l-1 -1l-1 2zM301 76l1 2l-2 2l-1 -2zM337 75l1 3l-2 3l-1 -3zM309 75l3 1v12l-3 -3l-2 -7zM338 74l1 -1l1 2l-1 1zM295 74l1 -1l1 2l-1 1zM103 74l1 -1l1 2l-1 1zM299 72l2 4l-2 2l-2 -2zM158 71l1 2h-2l1 2l-2 2l-1 -5zM586 73l2 -3l3 2l-3 3zM551 66l6 8l1 7h-4h2l2 4l-2 1v2l1 -2h3l1 5l-2 2l-1 -1l3 6l2 1l-4 3l-4 -2l2 -2v-3v2l-2 1l-4 -14l1 -4l-3 -4l2 -3h2l-5 -2l2 -1l-2 -1zM62 66l1 -1l1 2l-1 1zM662 63l2 3l3 -1l1 2l-2 4l-1 -3h-2v2l3 1v3l-3 1l-2 -2l2 3h-2l1 3l-2 2l-2 -16l1 -1l2 3l-1 -1zM560 60l-1 3h-6l4 -5l1 2zM555 57h5l-2 2zM435 54l1 2l-2 3l-1 -3zM366 52h5v4h-3l-1 -1l2 -1zM97 52l1 -1l1 2l-1 1zM47 52l2 -1l1 3l-1 1zM737 48l1 2l-2 2l-1 -2zM95 48l2 -1l1 2l-1 1zM659 46l3 3v6l-1 1l-2 -2l-1 3l-1 -8zM45 49l3 -3l3 2l-3 2zM351 45l1 1l-2 4l-1 -4zM41 46l1 -1l2 2l-2 1zM707 58l6 -10l1 1l-1 -2l2 -3l2 13l2 1l3 -2l10 6l-1 2l1 -2l2 4l7 3l1 -4l7 -3l3 1l-3 3l-1 -1l1 2l-8 10l-6 -5l2 -3h-2l-1 3l-7 -5l-10 -4h-4zM633 45l1 -1l1 2l-1 1zM475 45l1 -1l1 2l-1 1zM637 43l1 -1l1 2l-1 1zM530 41l1 -1l4 4l-3 1zM127 35l3 -1l1 2l-1 1z"/></svg>